<svg width="361" height="361" viewBox="0 0 361 361" fill="none" xmlns="http://www.w3.org/2000/svg">
<rect width="361" height="361" rx="28.88" fill="black"/>
<path d="M114.86 304V172.6H158.6C167.36 172.6 174.98 174.28 181.46 177.64C188.06 181 193.16 185.74 196.76 191.86C200.36 197.86 202.16 204.94 202.16 213.1C202.16 221.14 200.3 228.22 196.58 234.34C192.98 240.46 187.94 245.2 181.46 248.56C174.98 251.92 167.36 253.6 158.6 253.6H137.36V304H114.86ZM137.36 233.26H158.6C164.84 233.26 169.82 231.46 173.54 227.86C177.38 224.14 179.3 219.22 179.3 213.1C179.3 206.86 177.38 201.94 173.54 198.34C169.82 194.74 164.84 192.94 158.6 192.94H137.36V233.26ZM263.65 305.8C255.25 305.8 247.87 304.24 241.51 301.12C235.27 297.88 230.41 293.38 226.93 287.62C223.57 281.74 221.89 274.84 221.89 266.92V209.68C221.89 201.64 223.57 194.74 226.93 188.98C230.41 183.22 235.27 178.78 241.51 175.66C247.87 172.42 255.25 170.8 263.65 170.8C272.17 170.8 279.49 172.42 285.61 175.66C291.85 178.78 296.71 183.22 300.19 188.98C303.67 194.74 305.41 201.64 305.41 209.68H282.73C282.73 203.44 281.05 198.7 277.69 195.46C274.45 192.22 269.77 190.6 263.65 190.6C257.53 190.6 252.79 192.22 249.43 195.46C246.07 198.7 244.39 203.38 244.39 209.5V266.92C244.39 273.04 246.07 277.78 249.43 281.14C252.79 284.38 257.53 286 263.65 286C269.77 286 274.45 284.38 277.69 281.14C281.05 277.78 282.73 273.04 282.73 266.92H305.41C305.41 274.72 303.67 281.56 300.19 287.44C296.71 293.32 291.85 297.88 285.61 301.12C279.49 304.24 272.17 305.8 263.65 305.8Z" fill="white"/>
</svg>
